# Blender v2.77 (sub 0) OBJ File: 'BleakCrystalSingleblock.blend'
# www.blender.org
mtllib bleakcrystalsingleblock.mtl
o Cube
v -0.002934 -1.907978 -0.001996
v -0.002934 -1.907978 -0.001996
v -0.002934 -1.907978 -0.001996
v -0.002934 -1.907978 -0.001996
v -0.002934 -1.907978 -0.001996
v -0.002934 -1.907978 -0.001996
v -0.002934 -1.907978 -0.001996
v -0.002934 -1.907978 -0.001996
v -0.255934 0.000000 0.124503
v 0.123566 0.000000 -0.254996
v 0.123566 0.000000 0.251003
v 0.250065 0.000000 -0.128496
v -0.002934 -1.907978 -0.001996
v -0.002934 -1.907978 -0.001996
v -0.002934 -1.907978 -0.001996
v -0.002934 -1.907978 -0.001996
v -0.255934 0.000000 -0.128496
v -0.129434 0.000000 -0.254996
v -0.129434 0.000000 0.251003
v 0.250065 0.000000 0.124503
v -0.002934 -1.907978 -0.001996
v -0.002934 -1.907978 -0.001996
v -0.002934 -1.907978 -0.001996
v -0.002934 -1.907978 -0.001996
v -0.255934 -1.337121 -0.128496
v -0.129434 -1.337121 0.251003
v 0.250065 -1.337121 0.124503
v -0.129434 -1.337121 -0.254996
v 0.123566 -1.337121 -0.254996
v 0.250065 -1.337121 -0.128496
v 0.123566 -1.337121 0.251003
v -0.255934 -1.337121 0.124503
v 0.180058 0.000000 0.148996
v 0.180058 0.000000 -0.158332
v -0.767431 -0.962840 -0.004668
v -0.767431 -0.962840 -0.004668
v -0.767431 -0.962840 -0.004668
v -0.767431 -0.962840 -0.004668
v -0.767431 -0.962840 -0.004668
v -0.767431 -0.962840 -0.004668
v -0.767431 -0.962840 -0.004668
v -0.767431 -0.962840 -0.004668
v 0.143839 0.000000 -0.209553
v 0.143839 0.000000 0.200217
v 0.216277 0.000000 -0.107111
v -0.767431 -0.962840 -0.004668
v -0.767431 -0.962840 -0.004668
v -0.767431 -0.962840 -0.004668
v -0.767431 -0.962840 -0.004668
v 0.216277 0.000000 0.097775
v -0.767431 -0.962840 -0.004668
v -0.767431 -0.962840 -0.004668
v -0.767431 -0.962840 -0.004668
v -0.767431 -0.962840 -0.004668
v -0.661333 -0.447249 -0.107111
v -0.316948 0.000000 -0.107111
v -0.316948 0.000000 0.097775
v -0.588895 -0.541599 0.200217
v -0.172333 0.000000 0.200217
v -0.027457 -0.187730 0.200217
v -0.371581 -0.824648 0.097775
v -0.172333 0.000000 -0.209553
v -0.588895 -0.541599 -0.209553
v -0.444019 -0.730298 -0.209553
v -0.027457 -0.187730 -0.209553
v -0.371581 -0.824648 -0.107111
v -0.444019 -0.730298 0.200217
v -0.661333 -0.447249 0.097775
v -0.037256 0.000000 -0.158332
v -0.037256 0.000000 0.148996
v 0.910233 -0.962840 -0.004668
v 0.910233 -0.962840 -0.004668
v 0.910233 -0.962840 -0.004668
v 0.910233 -0.962840 -0.004668
v 0.910233 -0.962840 -0.004668
v 0.910233 -0.962840 -0.004668
v 0.910233 -0.962840 -0.004668
v 0.910233 -0.962840 -0.004668
v -0.073475 0.000000 0.097775
v 0.910233 -0.962840 -0.004668
v 0.910233 -0.962840 -0.004668
v 0.910233 -0.962840 -0.004668
v 0.910233 -0.962840 -0.004668
v -0.073475 0.000000 -0.107111
v -0.001037 0.000000 -0.209553
v -0.001037 0.000000 0.200217
v 0.910233 -0.962840 -0.004668
v 0.910233 -0.962840 -0.004668
v 0.910233 -0.962840 -0.004668
v 0.910233 -0.962840 -0.004668
v 0.514383 -0.824648 -0.107111
v 0.586821 -0.730298 0.200217
v 0.170259 -0.187730 0.200217
v 0.315135 0.000000 0.200217
v 0.804135 -0.447249 0.097775
v 0.461096 0.000000 0.097775
v 0.461096 0.000000 -0.107111
v 0.170259 -0.187730 -0.209553
v 0.586821 -0.730298 -0.209553
v 0.731697 -0.541599 -0.209553
v 0.315135 0.000000 -0.209553
v 0.804135 -0.447249 -0.107111
v 0.731697 -0.541599 0.200217
v 0.514383 -0.824648 0.097775
v -0.153163 0.000000 0.149531
v 0.154165 0.000000 0.149531
v 0.000500 -0.962840 -0.797957
v 0.000500 -0.962840 -0.797957
v 0.000500 -0.962840 -0.797957
v 0.000500 -0.962840 -0.797957
v 0.000500 -0.962840 -0.797957
v 0.000500 -0.962840 -0.797957
v 0.000500 -0.962840 -0.797957
v 0.000500 -0.962840 -0.797957
v 0.205386 0.000000 0.113312
v -0.204385 0.000000 0.113312
v 0.102943 0.000000 0.185750
v 0.000500 -0.962840 -0.797957
v 0.000500 -0.962840 -0.797957
v 0.000500 -0.962840 -0.797957
v 0.000500 -0.962840 -0.797957
v -0.101942 0.000000 0.185750
v 0.000500 -0.962840 -0.797957
v 0.000500 -0.962840 -0.797957
v 0.000500 -0.962840 -0.797957
v 0.000500 -0.962840 -0.797957
v 0.102943 -0.447249 -0.691859
v 0.102943 0.000000 -0.340540
v -0.101942 0.000000 -0.340540
v -0.204385 -0.541599 -0.619421
v -0.204385 0.000000 -0.202859
v -0.204385 -0.187730 -0.057983
v -0.101942 -0.824648 -0.402107
v 0.205386 0.000000 -0.202859
v 0.205386 -0.541599 -0.619421
v 0.205386 -0.730298 -0.474545
v 0.205386 -0.187730 -0.057983
v 0.102943 -0.824648 -0.402107
v -0.204385 -0.730298 -0.474545
v -0.101942 -0.447249 -0.691859
v 0.154165 0.000000 -0.067782
v -0.153163 0.000000 -0.067782
v 0.000501 -0.962840 0.879706
v 0.000501 -0.962840 0.879706
v 0.000501 -0.962840 0.879706
v 0.000501 -0.962840 0.879706
v 0.000501 -0.962840 0.879706
v 0.000501 -0.962840 0.879706
v 0.000501 -0.962840 0.879706
v 0.000501 -0.962840 0.879706
v -0.101942 0.000000 -0.104001
v 0.000501 -0.962840 0.879706
v 0.000501 -0.962840 0.879706
v 0.000501 -0.962840 0.879706
v 0.000501 -0.962840 0.879706
v 0.102943 0.000000 -0.104001
v 0.205386 0.000000 -0.031564
v -0.204385 0.000000 -0.031563
v 0.000501 -0.962840 0.879706
v 0.000501 -0.962840 0.879706
v 0.000501 -0.962840 0.879706
v 0.000501 -0.962840 0.879706
v 0.102943 -0.824648 0.483856
v -0.204385 -0.730298 0.556295
v -0.204385 -0.187730 0.139732
v -0.204385 0.000000 0.284608
v -0.101942 -0.447249 0.773608
v -0.101942 0.000000 0.424835
v 0.102943 0.000000 0.424835
v 0.205386 -0.187730 0.139732
v 0.205386 -0.730298 0.556294
v 0.205386 -0.541599 0.701170
v 0.205386 0.000000 0.284608
v 0.102943 -0.447249 0.773608
v -0.204385 -0.541599 0.701170
v -0.101942 -0.824648 0.483857
vn -0.6399 -0.4254 0.6399
vn 0.5281 0.4050 0.7464
vn 0.6399 -0.4254 -0.6399
vn 0.8892 -0.2787 -0.3629
vn 0.0000 0.0000 1.0000
vn -0.0000 0.2016 0.9795
vn 0.8143 -0.5805 -0.0000
vn 0.3629 -0.2787 -0.8892
vn -0.7923 0.6101 0.0000
vn 0.0018 0.0324 -0.9995
vn 0.1997 -0.5058 0.8392
vn -0.0000 -0.9441 0.3296
vn 0.7334 0.0329 0.6790
vn -0.0000 -0.5805 -0.8143
vn -0.3296 -0.9441 0.0000
vn -0.9142 -0.4052 0.0000
vn -0.6035 0.0439 -0.7962
vn -0.3629 -0.2787 -0.8892
vn 0.7010 -0.7101 -0.0665
vn -0.0000 -0.0000 -1.0000
vn 1.0000 -0.0000 -0.0000
vn -0.5271 0.4059 -0.7466
vn 0.7935 0.6086 0.0000
vn 0.7071 0.0000 -0.7071
vn -1.0000 -0.0000 0.0000
vn -0.8143 -0.5805 0.0000
vn 0.5281 0.4050 -0.7464
vn 0.0000 -0.5805 0.8143
vn -0.6035 0.0439 0.7962
vn 0.0340 0.7618 -0.6469
vn -0.6579 -0.4371 0.6132
vn 0.7474 0.4104 -0.5225
vn -0.6132 -0.4371 0.6579
vn -0.0843 0.1035 -0.9911
vn 0.0665 -0.7101 -0.7010
vn 0.7010 -0.7101 0.0665
vn 0.6035 0.0439 0.7962
vn -0.7010 -0.7101 -0.0665
vn -0.0665 -0.7101 0.7010
vn -0.5271 0.4059 0.7466
vn -0.0000 -0.9441 -0.3296
vn -0.7071 -0.0000 -0.7071
vn -0.6579 -0.4371 -0.6132
vn -0.8892 -0.2787 -0.3629
vn 0.6132 -0.4371 0.6579
vn 0.0000 -0.4052 0.9142
vn 0.7071 0.0000 0.7071
vn -0.9980 -0.0501 0.0391
vn -0.7071 0.0000 0.7071
vn -0.0000 0.2016 -0.9795
vn -0.0000 0.6149 0.7886
vn -0.7474 0.4104 -0.5225
vn 0.6035 0.0439 -0.7962
vn -0.3629 -0.2787 0.8892
vn -0.7471 0.4088 0.5242
vn -0.7010 -0.7101 0.0665
vn 0.1872 0.3722 0.9091
vn 0.7962 0.0439 -0.6035
vn -0.9795 0.2016 0.0000
vn 0.1070 0.0598 -0.9925
vn 0.6579 -0.4371 0.6132
vn -0.7962 0.0439 0.6035
vn 0.6579 -0.4371 -0.6132
vn -0.0000 -0.4052 -0.9142
vn 0.3629 -0.2787 0.8892
vn -0.6132 -0.4371 -0.6579
vn -0.0000 0.6177 -0.7864
vn 0.6132 -0.4371 -0.6579
vn 0.7471 0.4088 0.5242
vn -0.3259 0.7475 0.5789
vn 0.8892 -0.2787 0.3629
vn -0.8892 -0.2787 0.3629
vn 0.7597 -0.6469 0.0665
vn 0.5255 0.4042 0.7487
vn -0.1389 -0.0898 0.9862
vn -0.3857 0.0978 0.9174
vn 0.8966 -0.0032 0.4429
vn -0.1716 0.7296 0.6620
vn 0.0665 -0.7101 0.7010
vn 0.9795 0.2016 0.0000
vn 0.4026 0.0956 0.9104
vn 0.6399 -0.4254 0.6399
vn -0.0636 -0.8668 0.4945
vn -0.1465 -0.1857 -0.9716
vn -0.9641 0.0002 -0.2657
vn -0.0069 -0.1173 -0.9931
vn -0.6470 -0.4277 0.6313
vn -0.5282 0.4063 -0.7456
vn 0.5255 0.4042 -0.7487
vn -0.6267 0.1559 -0.7635
vn -0.0665 -0.7101 -0.7010
vn -0.4630 -0.5974 0.6548
vn -0.7464 -0.4052 0.5278
vn 0.7291 0.4173 -0.5425
vn -0.6548 -0.5974 0.4630
vn -0.5278 -0.4052 0.7465
vn 0.3296 -0.9441 0.0000
vn 0.0069 0.1173 0.9931
vn 0.3857 -0.0978 -0.9174
vn 0.6044 0.3412 0.7200
vn -0.5137 0.1390 0.8466
vn 0.9682 0.0010 -0.2500
vn 0.7015 -0.0809 0.7080
vn -0.0296 -0.6262 0.7791
vn -0.5282 0.4063 0.7456
vn -0.0851 0.1656 -0.9825
vn -0.4630 -0.5974 -0.6548
vn -0.7465 -0.4052 -0.5278
vn 0.0943 -0.0086 0.9955
vn 0.6548 -0.5974 0.4630
vn 0.5278 -0.4052 0.7464
vn 0.7379 -0.2907 -0.6091
vn -0.6399 -0.4254 -0.6399
vn -0.9988 -0.0082 0.0477
vn -0.7291 0.4173 -0.5425
vn 0.8611 -0.0698 -0.5036
vn 0.2346 -0.1950 0.9523
vn -0.7353 0.4132 0.5372
vn -0.9763 0.1165 0.1826
vn -0.7962 0.0439 -0.6035
vn 0.1716 -0.7296 -0.6620
vn -0.0459 0.5003 0.8646
vn 0.9142 -0.4052 -0.0000
vn 0.7465 -0.4052 0.5278
vn 0.4630 -0.5974 0.6548
vn 0.1047 -0.7430 -0.6610
vn 0.7465 -0.4052 -0.5278
vn 0.4630 -0.5974 -0.6548
vn 0.1389 0.0898 -0.9862
vn 0.0633 0.0282 0.9976
vn -0.5278 -0.4052 -0.7465
vn -0.6548 -0.5974 -0.4630
vn 0.6548 -0.5974 -0.4630
vn 0.5278 -0.4052 -0.7465
vn 0.7353 0.4132 0.5372
vn 0.7962 0.0439 0.6035
vn 0.5137 -0.1390 -0.8466
vn -0.7421 -0.2815 -0.6083
usemtl Material
s off
f 23//1 26//1 32//1
f 96//2 103//2 95//2
f 29//3 30//3 4//3
f 135//4 136//4 124//4
f 3//5 21//5 1//5
f 155//6 174//6 167//6
f 50//7 66//7 45//7
f 99//8 100//8 88//8
f 55//9 57//9 56//9
f 54//10 61//10 48//10
f 83//11 102//11 90//11
f 121//12 138//12 133//12
f 24//13 27//13 15//13
f 156//14 176//14 151//14
f 80//15 104//15 91//15
f 13//16 32//16 25//16
f 125//17 130//17 140//17
f 63//18 64//18 52//18
f 163//19 171//19 159//19
f 100//20 99//20 98//20
f 170//21 172//21 171//21
f 56//22 63//22 55//22
f 102//23 96//23 95//23
f 30//24 10//24 12//24
f 139//25 132//25 130//25
f 42//5 46//5 39//5
f 137//21 135//21 134//21
f 91//26 79//26 84//26
f 100//27 97//27 102//27
f 122//28 138//28 117//28
f 162//29 167//29 175//29
f 99//30 88//30 87//30
f 133//31 122//31 132//31
f 128//32 135//32 127//32
f 104//33 93//33 79//33
f 49//34 66//34 54//34
f 64//35 66//35 38//35
f 136//36 138//36 110//36
f 67//5 60//5 58//5
f 172//37 174//37 146//37
f 161//38 164//38 176//38
f 31//5 19//5 26//5
f 89//39 92//39 104//39
f 58//40 57//40 68//40
f 152//41 176//41 163//41
f 10//20 28//20 18//20
f 90//5 75//5 87//5
f 17//42 28//42 25//42
f 176//43 165//43 151//43
f 120//44 139//44 130//44
f 61//45 50//45 60//45
f 15//46 31//46 26//46
f 11//47 27//47 20//47
f 28//48 22//48 21//48
f 32//49 19//49 9//49
f 118//50 140//50 127//50
f 174//51 168//51 167//51
f 130//52 129//52 140//52
f 127//53 135//53 123//53
f 94//5 86//5 93//5
f 48//54 67//54 58//54
f 168//55 175//55 167//55
f 126//56 133//56 139//56
f 124//5 109//5 120//5
f 63//57 52//57 51//57
f 100//58 102//58 74//58
f 43//20 65//20 62//20
f 20//21 30//21 12//21
f 46//59 68//59 55//59
f 16//60 30//60 24//60
f 137//61 117//61 138//61
f 166//25 158//25 165//25
f 53//62 58//62 68//62
f 156//63 170//63 163//63
f 28//64 29//64 22//64
f 32//25 17//25 25//25
f 82//65 103//65 92//65
f 146//5 161//5 144//5
f 84//66 98//66 91//66
f 140//67 128//67 127//67
f 66//68 65//68 45//68
f 172//69 169//69 174//69
f 90//70 95//70 82//70
f 171//71 172//71 160//71
f 154//72 175//72 164//72
f 13//5 2//5 23//5
f 32//73 13//73 23//73
f 96//74 94//74 103//74
f 4//75 14//75 29//75
f 30//60 16//60 4//60
f 119//5 112//5 124//5
f 136//76 119//76 124//76
f 8//5 24//5 3//5
f 3//5 15//5 7//5
f 16//5 8//5 3//5
f 3//5 7//5 23//5
f 4//5 16//5 3//5
f 3//5 23//5 2//5
f 14//5 4//5 3//5
f 3//5 2//5 13//5
f 6//5 14//5 3//5
f 3//5 13//5 5//5
f 22//5 6//5 3//5
f 3//5 5//5 21//5
f 1//5 22//5 3//5
f 162//5 150//5 155//5
f 167//77 162//77 155//77
f 50//7 61//7 66//7
f 81//5 76//5 88//5
f 100//78 81//78 88//78
f 55//9 68//9 57//9
f 48//5 37//5 54//5
f 61//79 67//79 48//79
f 90//5 78//5 83//5
f 102//80 95//80 90//80
f 126//5 114//5 121//5
f 133//81 126//81 121//81
f 15//5 3//5 24//5
f 27//82 31//82 15//82
f 156//14 163//14 176//14
f 87//5 75//5 80//5
f 91//83 87//83 80//83
f 21//5 5//5 13//5
f 25//84 21//84 13//84
f 118//5 108//5 125//5
f 140//85 118//85 125//85
f 47//5 40//5 52//5
f 64//86 47//86 52//86
f 160//5 143//5 159//5
f 171//87 160//87 159//87
f 98//20 85//20 101//20
f 101//20 100//20 98//20
f 170//21 157//21 173//21
f 173//21 172//21 170//21
f 56//88 62//88 63//88
f 102//23 97//23 96//23
f 30//24 29//24 10//24
f 131//25 130//25 132//25
f 132//25 116//25 131//25
f 38//5 49//5 42//5
f 42//5 54//5 37//5
f 47//5 38//5 42//5
f 42//5 37//5 48//5
f 40//5 47//5 42//5
f 42//5 48//5 41//5
f 52//5 40//5 42//5
f 42//5 41//5 53//5
f 35//5 52//5 42//5
f 42//5 53//5 36//5
f 51//5 35//5 42//5
f 42//5 36//5 46//5
f 39//5 51//5 42//5
f 134//21 115//21 137//21
f 137//21 136//21 135//21
f 91//26 104//26 79//26
f 100//89 101//89 97//89
f 122//28 133//28 138//28
f 154//5 145//5 162//5
f 175//90 154//90 162//90
f 88//5 71//5 87//5
f 87//91 91//91 99//91
f 105//92 132//92 122//92
f 139//93 133//93 132//93
f 128//94 134//94 135//94
f 70//95 79//95 93//95
f 104//96 92//96 93//96
f 54//5 42//5 49//5
f 66//97 61//97 54//97
f 38//98 47//98 64//98
f 66//34 49//34 38//34
f 110//99 119//99 136//99
f 138//100 121//100 110//100
f 59//5 58//5 60//5
f 60//5 44//5 59//5
f 146//101 153//101 172//101
f 174//102 155//102 146//102
f 152//5 144//5 161//5
f 176//103 152//103 161//103
f 31//5 11//5 19//5
f 80//5 72//5 89//5
f 104//104 80//104 89//104
f 58//105 59//105 57//105
f 159//5 147//5 152//5
f 163//106 159//106 152//106
f 10//20 29//20 28//20
f 83//5 78//5 90//5
f 90//5 73//5 82//5
f 74//5 83//5 90//5
f 90//5 82//5 77//5
f 81//5 74//5 90//5
f 90//5 77//5 89//5
f 76//5 81//5 90//5
f 90//5 89//5 72//5
f 88//5 76//5 90//5
f 90//5 72//5 80//5
f 71//5 88//5 90//5
f 90//5 80//5 75//5
f 87//5 71//5 90//5
f 17//42 18//42 28//42
f 142//107 151//107 165//107
f 176//108 164//108 165//108
f 125//5 113//5 120//5
f 130//109 125//109 120//109
f 33//110 60//110 50//110
f 67//111 61//111 60//111
f 23//5 7//5 15//5
f 26//112 23//112 15//112
f 11//47 31//47 27//47
f 22//5 1//5 21//5
f 21//113 25//113 28//113
f 32//49 26//49 19//49
f 123//5 111//5 118//5
f 127//114 123//114 118//114
f 174//51 169//51 168//51
f 130//115 131//115 129//115
f 124//5 107//5 123//5
f 135//116 124//116 123//116
f 93//5 92//5 103//5
f 103//5 94//5 93//5
f 53//5 41//5 48//5
f 58//117 53//117 48//117
f 168//118 166//118 175//118
f 120//5 109//5 126//5
f 139//119 120//119 126//119
f 123//5 107//5 124//5
f 124//5 112//5 119//5
f 111//5 123//5 124//5
f 124//5 119//5 110//5
f 118//5 111//5 124//5
f 124//5 110//5 121//5
f 108//5 118//5 124//5
f 124//5 121//5 114//5
f 125//5 108//5 124//5
f 124//5 114//5 126//5
f 113//5 125//5 124//5
f 124//5 126//5 109//5
f 120//5 113//5 124//5
f 52//5 35//5 51//5
f 51//120 55//120 63//120
f 74//121 81//121 100//121
f 102//11 83//11 74//11
f 63//20 62//20 65//20
f 65//20 64//20 63//20
f 20//21 27//21 30//21
f 51//5 39//5 46//5
f 55//122 51//122 46//122
f 24//5 8//5 16//5
f 30//123 27//123 24//123
f 138//124 136//124 137//124
f 137//125 106//125 117//125
f 165//25 164//25 175//25
f 175//25 166//25 165//25
f 46//5 36//5 53//5
f 68//126 46//126 53//126
f 171//127 163//127 170//127
f 156//128 141//128 170//128
f 14//5 6//5 22//5
f 29//129 14//129 22//129
f 32//25 9//25 17//25
f 89//5 77//5 82//5
f 92//130 89//130 82//130
f 148//5 153//5 146//5
f 146//5 155//5 150//5
f 160//5 148//5 146//5
f 146//5 150//5 162//5
f 143//5 160//5 146//5
f 146//5 162//5 145//5
f 159//5 143//5 146//5
f 146//5 145//5 154//5
f 147//5 159//5 146//5
f 146//5 154//5 149//5
f 152//5 147//5 146//5
f 146//5 149//5 161//5
f 144//5 152//5 146//5
f 99//131 91//131 98//131
f 84//132 69//132 98//132
f 140//67 129//67 128//67
f 34//133 45//133 65//133
f 66//134 64//134 65//134
f 172//135 173//135 169//135
f 82//5 73//5 90//5
f 95//136 103//136 82//136
f 153//5 148//5 160//5
f 172//137 153//137 160//137
f 161//5 149//5 154//5
f 164//138 161//138 154//138
