# Blender v2.77 (sub 0) OBJ File: 'crate.blend'
# www.blender.org
mtllib crate.mtl
o Cube
v 1.000000 0.000000 -1.000000
v 1.000000 0.000000 1.000000
v -1.000000 0.000000 1.000000
v -1.000000 0.000000 -1.000000
v 1.000000 2.000000 -0.999999
v 0.999999 2.000000 1.000001
v -1.000000 2.000000 1.000000
v -1.000000 2.000000 -1.000000
v 1.000000 0.000000 0.000000
v 0.000000 0.000000 -1.000000
v 1.000000 1.000000 -1.000000
v 0.000000 0.000000 1.000000
v 1.000000 1.000000 1.000000
v -1.000000 0.000000 -0.000000
v -1.000000 1.000000 1.000000
v -1.000000 1.000000 -1.000000
v 1.000000 2.000000 0.000001
v 0.000000 2.000000 -1.000000
v -0.000001 2.000000 1.000000
v -1.000000 2.000000 -0.000000
v 1.000000 0.000000 0.875000
v -0.874999 0.000000 -1.000000
v 1.000000 1.875000 -1.000000
v -0.875000 0.000000 1.000000
v 1.000000 1.875000 1.000000
v -1.000000 0.000000 -0.875001
v -1.000000 1.875000 1.000000
v -1.000000 1.875000 -1.000000
v 1.000000 2.000000 0.875001
v -0.875000 2.000000 -1.000000
v -0.875001 2.000000 1.000000
v -1.000000 2.000000 -0.875000
v 1.000000 0.000000 -0.875000
v 0.875000 0.000000 -1.000000
v 1.000000 0.125000 -1.000000
v 0.875000 0.000000 1.000000
v 1.000000 0.125000 1.000000
v -1.000000 0.000000 0.875000
v -1.000000 0.125000 1.000000
v -1.000000 0.125000 -1.000000
v 1.000000 2.000000 -0.874999
v 0.875001 2.000000 -1.000000
v 0.874999 2.000000 1.000000
v -1.000000 2.000000 0.874999
v -0.875000 1.000000 -1.000000
v 0.875000 1.000000 -1.000000
v 0.000000 1.875000 -1.000000
v 0.000000 0.125000 -1.000000
v -1.000000 1.000000 -0.875000
v -1.000000 1.000000 0.875000
v -1.000000 0.125000 -0.000000
v -1.000000 1.875000 -0.000000
v -0.875000 1.000000 1.000000
v 0.874999 1.000000 1.000000
v -0.000000 0.125000 1.000000
v -0.000000 1.875000 1.000000
v 1.000000 1.000000 0.875000
v 1.000000 1.000000 -0.875000
v 1.000000 0.125000 0.000000
v 1.000000 1.875000 0.000000
v -0.000000 2.000000 0.875000
v 0.000000 2.000000 -0.875000
v 0.875000 2.000000 0.000000
v -0.875000 2.000000 0.000000
v -0.875000 0.000000 -0.000000
v 0.875000 0.000000 -0.000000
v 0.000000 0.000000 -0.875000
v 0.000000 0.000000 0.875000
v 0.875000 0.000000 0.875000
v 0.875000 0.000000 -0.875000
v -0.875000 0.000000 -0.875000
v -0.875000 2.000000 -0.875000
v 0.875000 2.000000 -0.874999
v 0.874999 2.000000 0.875001
v 1.000000 1.875000 -0.874999
v 1.000000 0.125000 -0.875000
v 1.000000 0.125000 0.875000
v 0.874999 1.875000 1.000000
v 0.875000 0.125000 1.000000
v -0.875000 0.125000 1.000000
v -1.000000 1.875000 0.875000
v -1.000000 0.125000 0.875000
v -1.000000 0.125000 -0.875000
v 0.875000 0.125000 -1.000000
v 0.875001 1.875000 -1.000000
v -0.875000 1.875000 -1.000000
v -0.874999 0.125000 -1.000000
v -1.000000 1.875000 -0.875000
v -0.875001 1.875000 1.000000
v 1.000000 1.875000 0.875001
v -0.875001 2.000000 0.875000
v -0.875000 0.000000 0.875000
vt 0.6827 0.0251
vt 0.7000 0.0000
vt 0.7000 0.0251
vt 0.4071 0.3759
vt 0.3898 0.4010
vt 0.3898 0.3759
vt 0.0244 0.8020
vt 0.0000 0.7770
vt 0.0244 0.7770
vt 0.9584 0.7770
vt 0.9412 0.8020
vt 0.9412 0.7770
vt 0.0244 0.0251
vt 0.0000 0.0000
vt 0.0244 0.0000
vt 0.9828 0.3509
vt 1.0000 0.3759
vt 0.9828 0.3759
vt 0.4231 0.8759
vt 0.3987 0.7519
vt 0.4231 0.7519
vt 0.9584 0.0000
vt 0.9828 0.1754
vt 0.9584 0.1754
vt 1.0000 0.0000
vt 0.9828 0.1754
vt 0.9828 0.0000
vt 0.1949 0.0251
vt 0.3655 0.0000
vt 0.3655 0.0251
vt 0.6138 0.6015
vt 0.5794 0.4261
vt 0.6138 0.4261
vt 0.0000 0.3759
vt 0.0244 0.2005
vt 0.0244 0.3759
vt 0.8206 0.7770
vt 0.7000 0.8020
vt 0.7000 0.7770
vt 0.5205 0.4010
vt 0.5449 0.5764
vt 0.5205 0.5764
vt 0.4474 0.9273
vt 0.4647 0.7519
vt 0.4647 0.9273
vt 0.0244 0.6015
vt 0.0000 0.4261
vt 0.0244 0.4261
vt 0.4231 0.5764
vt 0.3987 0.7519
vt 0.3987 0.5764
vt 0.3655 0.8020
vt 0.1949 0.7770
vt 0.3655 0.7770
vt 0.4071 0.2005
vt 0.3898 0.0251
vt 0.4071 0.0251
vt 0.4962 0.7519
vt 0.5205 0.5764
vt 0.5205 0.7519
vt 0.6483 0.3759
vt 0.5277 0.4010
vt 0.5277 0.3759
vt 0.9412 0.0251
vt 0.8206 0.0000
vt 0.9412 0.0000
vt 0.4474 0.7519
vt 0.4718 0.5764
vt 0.4718 0.7519
vt 0.7000 0.3759
vt 0.6827 0.2005
vt 0.7000 0.2005
vt 0.4474 0.4010
vt 0.4718 0.4010
vt 0.8206 0.4010
vt 0.8206 0.3759
vt 0.7000 0.4010
vt 0.6827 0.3759
vt 0.9412 0.3759
vt 0.9584 0.2005
vt 0.9584 0.3759
vt 0.9412 0.4010
vt 0.9584 0.4010
vt 0.9584 0.0000
vt 0.9584 0.0251
vt 0.9412 0.2005
vt 0.6483 0.6015
vt 0.6827 0.4261
vt 0.6827 0.6015
vt 0.4962 0.5764
vt 0.5205 0.4010
vt 0.6655 0.3759
vt 0.6483 0.2005
vt 0.6655 0.2005
vt 0.6483 0.4010
vt 0.6483 0.0000
vt 0.5277 0.0251
vt 0.5277 0.0000
vt 0.6655 0.0251
vt 0.6655 0.0000
vt 0.6483 0.0251
vt 0.3898 0.0000
vt 0.4071 0.0000
vt 0.6483 0.4261
vt 0.6138 0.6015
vt 0.6138 0.4261
vt 0.3987 0.4010
vt 0.4231 0.4010
vt 0.3898 0.7770
vt 0.3655 0.6015
vt 0.3898 0.6015
vt 0.3898 0.8020
vt 0.3655 0.4261
vt 0.1949 0.4010
vt 0.3655 0.4010
vt 0.3898 0.4261
vt 0.3898 0.4010
vt 0.0000 0.4010
vt 0.0244 0.4010
vt 0.1949 0.4261
vt 0.4962 0.5764
vt 0.4962 0.4010
vt 0.5449 0.7519
vt 0.5205 0.7519
vt 0.9412 0.4010
vt 0.8206 0.4261
vt 0.8206 0.4010
vt 0.4474 0.9524
vt 0.4647 0.9524
vt 0.7000 0.4261
vt 0.6827 0.6015
vt 0.6827 0.4261
vt 0.7000 0.4010
vt 0.6827 0.4010
vt 0.6827 0.8020
vt 0.6827 0.7770
vt 0.7000 0.6015
vt 0.5449 0.4261
vt 0.5794 0.6015
vt 0.5449 0.6015
vt 0.5794 0.6015
vt 0.6138 0.7770
vt 0.5794 0.7770
vt 0.0244 0.4010
vt 0.1949 0.3759
vt 0.1949 0.4010
vt 0.0000 0.4010
vt 0.3655 0.3759
vt 0.3898 0.2005
vt 0.3898 0.3759
vt 0.3655 0.4010
vt 0.3898 0.4010
vt 0.3898 0.0251
vt 0.3898 0.0000
vt 0.3655 0.2005
vt 0.4474 0.4010
vt 0.4231 0.5764
vt 0.4231 0.4010
vt 0.9828 0.3509
vt 0.9584 0.3509
vt 0.9828 0.9499
vt 0.9584 0.8258
vt 0.9828 0.8258
vt 0.9828 0.9676
vt 0.9584 0.9499
vt 0.6827 0.0251
vt 0.6827 0.0000
vt 0.9584 0.7018
vt 0.9828 0.7018
vt 0.6827 0.4010
vt 0.6655 0.4010
vt 0.6827 0.3759
vt 0.9584 0.7018
vt 0.9828 0.5263
vt 0.9828 0.7018
vt 0.4231 1.0000
vt 0.3987 0.8759
vt 0.9584 0.3509
vt 0.9584 0.5263
vt 1.0000 0.1754
vt 0.1949 0.0000
vt 0.4474 0.7519
vt 0.4474 0.5764
vt 0.0000 0.0251
vt 0.8206 0.8020
vt 0.5794 0.7770
vt 0.5449 0.7770
vt 0.9584 0.6015
vt 0.9412 0.6015
vt 0.0000 0.6015
vt 0.4718 0.7519
vt 0.4962 0.7519
vt 0.1949 0.8020
vt 0.3898 0.2005
vt 0.6483 0.6015
vt 0.6138 0.7770
vt 0.4071 0.4010
vt 0.8206 0.0251
vt 0.6483 0.7770
vt 0.6827 0.7770
vt 0.5621 0.8020
vt 0.6655 0.8020
vt 0.6311 0.4010
vt 0.6483 0.7770
vt 0.6311 0.8020
vt 0.6655 0.4010
vt 0.6483 0.4261
vt 0.5621 0.4010
vt 0.5794 0.4261
vt 0.5966 0.8020
vt 0.5966 0.4010
vt 0.6827 0.0000
vt 0.0000 0.8020
vt 0.9584 0.8020
vt 1.0000 0.3509
vt 0.9828 0.0000
vt 0.0000 0.2005
vt 0.5449 0.4010
vt 0.4474 0.7519
vt 0.4474 0.5764
vt 0.4962 0.4010
vt 0.4718 0.5764
vt 0.9412 0.4261
vt 0.9584 0.9676
vt 0.6827 0.2005
vt 0.3987 1.0000
vt 0.9828 0.3509
vt 0.4231 0.7519
vn 0.0000 -1.0000 0.0000
vn 0.0000 1.0000 0.0000
vn 1.0000 0.0000 0.0000
vn -0.0000 -0.0000 1.0000
vn -1.0000 -0.0000 -0.0000
vn 0.0000 0.0000 -1.0000
vn -0.7071 0.7071 0.0000
vn 0.0000 0.7071 -0.7071
vn 0.7071 0.7071 0.0000
vn 0.7071 -0.0000 0.7071
vn 0.7071 -0.7071 0.0000
vn -0.7071 -0.7071 -0.0000
vn -0.0000 -0.7071 0.7071
vn 0.0000 -0.7071 -0.7071
vn -0.7071 -0.0000 0.7071
vn -0.0000 0.7071 0.7071
vn 0.7071 -0.0000 -0.7071
vn -0.7071 0.0000 -0.7071
vn -0.5774 0.5774 0.5773
vn -0.5774 -0.5774 0.5773
vn -0.5773 -0.5774 -0.5774
vn 0.5774 -0.5773 -0.5773
vn 0.5773 -0.5774 0.5774
vn 0.5773 0.5773 0.5774
vn 0.5774 0.5774 -0.5773
vn -0.5773 0.5774 -0.5774
usemtl Material
s off
f 24/1/1 38/2/1 92/3/1
f 91/4/2 7/5/2 31/6/2
f 29/7/3 25/8/3 90/9/3
f 31/10/4 27/11/4 89/12/4
f 88/13/5 8/14/5 28/15/5
f 87/16/6 4/17/6 40/18/6
f 45/19/6 28/20/6 86/21/6
f 69/22/7 59/23/7 66/24/7
f 34/25/6 48/26/6 84/27/6
f 49/28/5 40/29/5 83/30/5
f 68/31/8 79/32/8 69/33/8
f 44/34/5 52/35/5 81/36/5
f 53/37/4 39/38/4 80/39/4
f 82/40/9 65/41/9 51/42/9
f 43/43/4 56/44/4 78/45/4
f 57/46/3 37/47/3 77/48/3
f 45/49/10 88/50/10 49/51/10
f 41/52/3 60/53/3 75/54/3
f 61/55/2 43/56/2 74/57/2
f 72/58/11 52/59/11 88/60/11
f 72/61/2 20/62/2 64/63/2
f 71/64/1 14/65/1 26/66/1
f 74/67/12 60/68/12 90/69/12
f 69/70/1 12/71/1 68/72/1
f 60/68/12 73/73/12 75/74/12
f 9/75/1 69/70/1 66/76/1
f 21/77/1 36/78/1 69/70/1
f 70/79/1 10/80/1 34/81/1
f 33/82/1 34/81/1 1/83/1
f 33/82/1 66/76/1 70/79/1
f 71/64/1 4/84/1 22/85/1
f 67/86/1 22/85/1 10/80/1
f 62/87/13 86/88/13 47/89/13
f 64/90/11 81/91/11 52/59/11
f 30/92/2 62/93/2 18/94/2
f 30/92/2 32/95/2 72/61/2
f 41/96/2 63/97/2 17/98/2
f 42/99/2 41/96/2 5/100/2
f 18/94/2 73/101/2 42/99/2
f 74/57/2 6/102/2 29/103/2
f 17/98/2 74/57/2 29/103/2
f 78/104/14 61/105/14 74/106/14
f 45/49/10 83/107/10 87/108/10
f 23/109/3 58/110/3 11/111/3
f 5/112/3 75/54/3 23/109/3
f 76/113/3 9/114/3 33/115/3
f 35/116/3 33/115/3 1/117/3
f 11/111/3 76/113/3 35/116/3
f 77/48/3 2/118/3 21/119/3
f 59/120/3 21/119/3 9/114/3
f 46/121/15 75/74/15 85/122/15
f 51/42/9 71/123/9 83/124/9
f 25/125/4 54/126/4 13/127/4
f 6/128/4 78/45/4 25/129/4
f 79/130/4 12/131/4 36/132/4
f 37/133/4 36/132/4 2/134/4
f 13/127/4 79/130/4 37/133/4
f 80/39/4 3/135/4 24/136/4
f 55/137/4 24/136/4 12/131/4
f 87/138/16 67/139/16 48/140/16
f 55/141/8 92/142/8 80/143/8
f 27/144/5 50/145/5 15/146/5
f 7/147/5 81/36/5 27/144/5
f 82/148/5 14/149/5 38/150/5
f 39/151/5 38/150/5 3/152/5
f 15/146/5 82/148/5 39/151/5
f 26/153/5 40/29/5 4/154/5
f 51/155/5 26/153/5 14/149/5
f 82/156/17 53/157/17 80/158/17
f 66/24/7 76/159/7 70/160/7
f 35/161/6 46/162/6 11/163/6
f 1/164/6 84/165/6 35/161/6
f 85/166/6 18/94/6 42/99/6
f 23/167/6 42/99/6 5/100/6
f 11/163/6 85/168/6 23/169/6
f 30/92/6 28/170/6 8/171/6
f 18/94/6 86/172/6 30/92/6
f 79/173/18 57/174/18 77/175/18
f 87/176/6 16/177/6 45/19/6
f 78/178/18 57/174/18 54/179/18
f 10/180/6 87/16/6 48/26/6
f 88/13/5 16/181/5 49/28/5
f 81/182/17 53/157/17 50/183/17
f 52/35/5 32/184/5 88/13/5
f 89/12/4 15/185/4 53/37/4
f 48/140/16 70/186/16 84/187/16
f 19/188/4 89/12/4 56/189/4
f 90/9/3 13/190/3 57/46/3
f 76/191/15 46/121/15 84/192/15
f 17/193/3 90/9/3 60/53/3
f 91/4/2 19/194/2 61/55/2
f 56/195/14 91/196/14 61/105/14
f 64/63/2 44/197/2 91/4/2
f 65/198/1 38/2/1 14/65/1
f 73/199/13 47/89/13 85/200/13
f 12/71/1 92/3/1 68/72/1
f 76/201/19 84/187/19 70/186/19
f 75/202/20 73/199/20 85/200/20
f 78/104/21 74/106/21 90/203/21
f 91/196/22 89/204/22 81/205/22
f 88/206/23 86/88/23 72/207/23
f 83/208/24 71/209/24 87/138/24
f 82/210/25 80/143/25 92/142/25
f 79/32/26 77/211/26 69/33/26
f 24/1/1 3/212/1 38/2/1
f 91/4/2 44/197/2 7/5/2
f 29/7/3 6/213/3 25/8/3
f 31/10/4 7/214/4 27/11/4
f 88/13/5 32/184/5 8/14/5
f 87/16/6 22/215/6 4/17/6
f 45/19/6 16/177/6 28/20/6
f 69/22/7 77/216/7 59/23/7
f 34/25/6 10/180/6 48/26/6
f 49/28/5 16/181/5 40/29/5
f 68/31/8 55/141/8 79/32/8
f 44/34/5 20/217/5 52/35/5
f 53/37/4 15/185/4 39/38/4
f 82/40/9 92/218/9 65/41/9
f 43/43/4 19/219/4 56/44/4
f 57/46/3 13/190/3 37/47/3
f 45/49/10 86/21/10 88/50/10
f 41/52/3 17/193/3 60/53/3
f 61/55/2 19/194/2 43/56/2
f 72/58/11 64/90/11 52/59/11
f 72/61/2 32/95/2 20/62/2
f 71/64/1 65/198/1 14/65/1
f 74/67/12 63/220/12 60/68/12
f 69/70/1 36/78/1 12/71/1
f 60/68/12 63/220/12 73/73/12
f 9/75/1 21/77/1 69/70/1
f 21/77/1 2/134/1 36/78/1
f 70/79/1 67/86/1 10/80/1
f 33/82/1 70/79/1 34/81/1
f 33/82/1 9/75/1 66/76/1
f 71/64/1 26/66/1 4/84/1
f 67/86/1 71/64/1 22/85/1
f 62/87/13 72/207/13 86/88/13
f 64/90/11 91/221/11 81/91/11
f 30/92/2 72/61/2 62/93/2
f 30/92/2 8/171/2 32/95/2
f 41/96/2 73/101/2 63/97/2
f 42/99/2 73/101/2 41/96/2
f 18/94/2 62/93/2 73/101/2
f 74/57/2 43/56/2 6/102/2
f 17/98/2 63/97/2 74/57/2
f 78/104/14 56/195/14 61/105/14
f 45/49/10 49/51/10 83/107/10
f 23/109/3 75/54/3 58/110/3
f 5/112/3 41/52/3 75/54/3
f 76/113/3 59/120/3 9/114/3
f 35/116/3 76/113/3 33/115/3
f 11/111/3 58/110/3 76/113/3
f 77/48/3 37/47/3 2/118/3
f 59/120/3 77/48/3 21/119/3
f 46/121/15 58/222/15 75/74/15
f 51/42/9 65/41/9 71/123/9
f 25/125/4 78/223/4 54/126/4
f 6/128/4 43/43/4 78/45/4
f 79/130/4 55/137/4 12/131/4
f 37/133/4 79/130/4 36/132/4
f 13/127/4 54/126/4 79/130/4
f 80/39/4 39/38/4 3/135/4
f 55/137/4 80/39/4 24/136/4
f 87/138/16 71/209/16 67/139/16
f 55/141/8 68/31/8 92/142/8
f 27/144/5 81/36/5 50/145/5
f 7/147/5 44/34/5 81/36/5
f 82/148/5 51/155/5 14/149/5
f 39/151/5 82/148/5 38/150/5
f 15/146/5 50/145/5 82/148/5
f 26/153/5 83/30/5 40/29/5
f 51/155/5 83/30/5 26/153/5
f 82/156/17 50/183/17 53/157/17
f 66/24/7 59/23/7 76/159/7
f 35/161/6 84/165/6 46/162/6
f 1/164/6 34/224/6 84/165/6
f 85/166/6 47/225/6 18/94/6
f 23/167/6 85/166/6 42/99/6
f 11/163/6 46/162/6 85/168/6
f 30/92/6 86/172/6 28/170/6
f 18/94/6 47/225/6 86/172/6
f 79/173/18 54/179/18 57/174/18
f 87/176/6 40/226/6 16/177/6
f 78/178/18 90/227/18 57/174/18
f 10/180/6 22/215/6 87/16/6
f 88/13/5 28/15/5 16/181/5
f 81/182/17 89/228/17 53/157/17
f 52/35/5 20/217/5 32/184/5
f 89/12/4 27/11/4 15/185/4
f 48/140/16 67/139/16 70/186/16
f 19/188/4 31/10/4 89/12/4
f 90/9/3 25/8/3 13/190/3
f 76/191/15 58/222/15 46/121/15
f 17/193/3 29/7/3 90/9/3
f 91/4/2 31/6/2 19/194/2
f 56/195/14 89/204/14 91/196/14
f 64/63/2 20/62/2 44/197/2
f 65/198/1 92/3/1 38/2/1
f 73/199/13 62/87/13 47/89/13
f 12/71/1 24/1/1 92/3/1
