# Blender v2.77 (sub 0) OBJ File: 'holoscanner.blend'
# www.blender.org
mtllib holoscanner.mtl
o Projector_Icosphere
v 0.000000 -0.049080 0.000000
v 0.381487 0.242347 0.277164
v -0.145712 0.242346 0.448464
v -0.471543 0.242349 0.000000
v -0.145712 0.242346 -0.448464
v 0.381487 0.242347 -0.277164
v 0.145712 0.713897 0.448464
v -0.381487 0.713897 0.277164
v -0.381487 0.713897 -0.277164
v 0.145712 0.713897 -0.448464
v 0.471543 0.713895 0.000000
v 0.000000 1.005324 0.000000
v -0.085647 0.029655 0.263599
v 0.224231 0.029655 0.162911
v 0.138585 0.200952 0.426513
v 0.448463 0.200953 0.000000
v 0.224231 0.029655 -0.162911
v -0.277166 0.029656 0.000000
v -0.362815 0.200953 0.263599
v -0.085647 0.029655 -0.263599
v -0.362815 0.200953 -0.263599
v 0.138585 0.200952 -0.426513
v 0.501400 0.478122 0.162912
v 0.501400 0.478122 -0.162912
v 0.000000 0.478122 0.527202
v 0.309882 0.478122 0.426515
v -0.501400 0.478122 0.162912
v -0.309882 0.478122 0.426515
v -0.309882 0.478122 -0.426515
v -0.501400 0.478122 -0.162912
v 0.309882 0.478122 -0.426515
v 0.000000 0.478122 -0.527202
v 0.362815 0.755291 0.263599
v -0.138585 0.755292 0.426513
v -0.448463 0.755291 0.000000
v -0.138585 0.755292 -0.426513
v 0.362815 0.755291 -0.263599
v 0.085647 0.926588 0.263599
v 0.277166 0.926587 0.000000
v -0.224231 0.926588 0.162911
v -0.224231 0.926588 -0.162911
v 0.085647 0.926588 -0.263599
vn 0.1024 -0.9435 0.3151
vn 0.7002 -0.6617 0.2680
vn -0.2680 -0.9435 0.1947
vn -0.2680 -0.9435 -0.1947
vn 0.1024 -0.9435 -0.3151
vn 0.9050 -0.3304 0.2680
vn 0.0247 -0.3304 0.9435
vn -0.8897 -0.3304 0.3151
vn -0.5746 -0.3304 -0.7488
vn 0.5346 -0.3304 -0.7779
vn 0.8026 -0.1256 0.5831
vn -0.3066 -0.1256 0.9435
vn -0.9921 -0.1256 0.0000
vn -0.3066 -0.1256 -0.9435
vn 0.8026 -0.1256 -0.5831
vn 0.4089 0.6617 0.6284
vn -0.4713 0.6617 0.5831
vn -0.7002 0.6617 -0.2680
vn 0.0385 0.6617 -0.7488
vn 0.7240 0.6617 -0.1947
vn 0.2680 0.9435 -0.1947
vn 0.4911 0.7947 -0.3568
vn 0.4089 0.6617 -0.6284
vn -0.1024 0.9435 -0.3151
vn -0.1876 0.7947 -0.5773
vn -0.4713 0.6617 -0.5831
vn -0.3313 0.9435 0.0000
vn -0.6071 0.7947 0.0000
vn -0.7002 0.6617 0.2680
vn -0.1024 0.9435 0.3151
vn -0.1876 0.7947 0.5773
vn 0.0385 0.6617 0.7488
vn 0.2680 0.9435 0.1947
vn 0.4911 0.7947 0.3568
vn 0.7240 0.6617 0.1947
vn 0.8897 0.3304 -0.3151
vn 0.7947 0.1876 -0.5773
vn 0.5746 0.3304 -0.7488
vn -0.0247 0.3304 -0.9435
vn -0.3035 0.1876 -0.9342
vn -0.5346 0.3304 -0.7779
vn -0.9050 0.3304 -0.2680
vn -0.9822 0.1876 -0.0000
vn -0.9050 0.3304 0.2680
vn -0.5346 0.3304 0.7779
vn -0.3035 0.1876 0.9342
vn -0.0247 0.3304 0.9435
vn 0.5746 0.3304 0.7488
vn 0.7947 0.1876 0.5773
vn 0.8897 0.3304 0.3151
vn 0.3066 0.1256 -0.9435
vn 0.3035 -0.1876 -0.9342
vn 0.0247 -0.3304 -0.9435
vn -0.8026 0.1256 -0.5831
vn -0.7947 -0.1876 -0.5773
vn -0.8897 -0.3304 -0.3151
vn -0.8026 0.1256 0.5831
vn -0.7947 -0.1876 0.5773
vn -0.5746 -0.3304 0.7488
vn 0.3066 0.1256 0.9435
vn 0.3035 -0.1876 0.9342
vn 0.5346 -0.3304 0.7779
vn 0.9921 0.1256 0.0000
vn 0.9822 -0.1876 -0.0000
vn 0.9050 -0.3304 -0.2680
vn 0.4713 -0.6617 -0.5831
vn 0.1876 -0.7947 -0.5773
vn -0.0385 -0.6617 -0.7488
vn -0.4089 -0.6617 -0.6284
vn -0.4911 -0.7947 -0.3568
vn -0.7240 -0.6617 -0.1947
vn -0.7240 -0.6617 0.1947
vn -0.4911 -0.7947 0.3568
vn -0.4089 -0.6617 0.6284
vn 0.7002 -0.6617 -0.2680
vn 0.6071 -0.7947 0.0000
vn 0.3313 -0.9435 0.0000
vn -0.0385 -0.6617 0.7488
vn 0.1876 -0.7947 0.5773
vn 0.4713 -0.6617 0.5831
usemtl Material.001
s off
f 1//1 14//1 13//1
f 2//2 14//2 16//2
f 1//3 13//3 18//3
f 1//4 18//4 20//4
f 1//5 20//5 17//5
f 2//6 16//6 23//6
f 3//7 15//7 25//7
f 4//8 19//8 27//8
f 5//9 21//9 29//9
f 6//10 22//10 31//10
f 2//11 23//11 26//11
f 3//12 25//12 28//12
f 4//13 27//13 30//13
f 5//14 29//14 32//14
f 6//15 31//15 24//15
f 7//16 33//16 38//16
f 8//17 34//17 40//17
f 9//18 35//18 41//18
f 10//19 36//19 42//19
f 11//20 37//20 39//20
f 39//21 42//21 12//21
f 39//22 37//22 42//22
f 37//23 10//23 42//23
f 42//24 41//24 12//24
f 42//25 36//25 41//25
f 36//26 9//26 41//26
f 41//27 40//27 12//27
f 41//28 35//28 40//28
f 35//29 8//29 40//29
f 40//30 38//30 12//30
f 40//31 34//31 38//31
f 34//32 7//32 38//32
f 38//33 39//33 12//33
f 38//34 33//34 39//34
f 33//35 11//35 39//35
f 24//36 37//36 11//36
f 24//37 31//37 37//37
f 31//38 10//38 37//38
f 32//39 36//39 10//39
f 32//40 29//40 36//40
f 29//41 9//41 36//41
f 30//42 35//42 9//42
f 30//43 27//43 35//43
f 27//44 8//44 35//44
f 28//45 34//45 8//45
f 28//46 25//46 34//46
f 25//47 7//47 34//47
f 26//48 33//48 7//48
f 26//49 23//49 33//49
f 23//50 11//50 33//50
f 31//51 32//51 10//51
f 31//52 22//52 32//52
f 22//53 5//53 32//53
f 29//54 30//54 9//54
f 29//55 21//55 30//55
f 21//56 4//56 30//56
f 27//57 28//57 8//57
f 27//58 19//58 28//58
f 19//59 3//59 28//59
f 25//60 26//60 7//60
f 25//61 15//61 26//61
f 15//62 2//62 26//62
f 23//63 24//63 11//63
f 23//64 16//64 24//64
f 16//65 6//65 24//65
f 17//66 22//66 6//66
f 17//67 20//67 22//67
f 20//68 5//68 22//68
f 20//69 21//69 5//69
f 20//70 18//70 21//70
f 18//71 4//71 21//71
f 18//72 19//72 4//72
f 18//73 13//73 19//73
f 13//74 3//74 19//74
f 16//75 17//75 6//75
f 16//76 14//76 17//76
f 14//77 1//77 17//77
f 13//78 15//78 3//78
f 13//79 14//79 15//79
f 14//80 2//80 15//80
o Base_Cube
v 1.000000 0.009057 -1.000000
v 0.709958 0.009057 1.000000
v -0.709958 0.009057 1.000000
v -1.000000 0.009057 -1.000000
v 1.000000 1.026073 -0.999999
v 0.709958 1.026073 1.000001
v -0.709959 1.026073 1.000000
v -1.000000 1.026073 -1.000000
v 0.692546 0.526719 -0.692546
v 0.692546 0.526719 0.692547
v -0.692546 0.526719 0.692546
v -0.692546 0.526719 -0.692546
vn 0.0000 -1.0000 -0.0000
vn -0.0000 0.5243 0.8515
vn 0.9896 -0.0000 0.1435
vn -0.0000 -0.0000 1.0000
vn -0.9896 -0.0000 0.1435
vn 0.0000 0.0000 -1.0000
vn 0.0000 1.0000 0.0000
vn 0.0000 0.5243 -0.8515
vn 0.8515 0.5243 0.0000
vn -0.9823 0.1220 -0.1424
vn 0.9823 0.1220 -0.1424
vn -0.8515 0.5243 -0.0000
usemtl Material
s off
f 44//81 46//81 43//81
f 50//82 51//82 47//82
f 47//83 44//83 43//83
f 48//84 45//84 44//84
f 45//85 50//85 46//85
f 43//86 50//86 47//86
f 54//87 52//87 51//87
f 49//88 52//88 53//88
f 50//89 53//89 54//89
f 47//90 52//90 48//90
f 44//81 45//81 46//81
f 50//82 54//82 51//82
f 47//83 48//83 44//83
f 48//84 49//84 45//84
f 45//85 49//85 50//85
f 43//86 46//86 50//86
f 54//87 53//87 52//87
f 49//88 48//88 52//88
f 50//91 49//91 53//91
f 47//92 51//92 52//92
